<?xml version="1.0" encoding="UTF-8"?>
<!DOCTYPE svg
PUBLIC "-//W3C//DTD SVG 1.1//EN"
       "http://www.w3.org/Graphics/SVG/1.1/DTD/svg11.dtd">
<svg viewBox="417 91 929 491" width="512px" height="400px" xmlns="http://www.w3.org/2000/svg" version="1.1">
   <line x1="826" y1="466" x2="816" y2="466" style="stroke:#cb0;stroke-width:1;"/>
   <line x1="513" y1="366" x2="503" y2="366" style="stroke:#cb0;stroke-width:1;"/>
   <line x1="816" y1="466" x2="513" y2="366" style="stroke:#cb0;stroke-width:1;"/>
   <line x1="818.5" y1="466" x2="822.03553390593" y2="469.53553390593" style="stroke:#cb0;stroke-width:2;"/>
   <line x1="818.5" y1="466" x2="822.03553390593" y2="462.46446609407" style="stroke:#cb0;stroke-width:2;"/>
   <line x1="508" y1="366" x2="511.53553390593" y2="369.53553390593" style="stroke:#cb0;stroke-width:2;"/>
   <line x1="508" y1="366" x2="511.53553390593" y2="362.46446609407" style="stroke:#cb0;stroke-width:2;"/>
   <rect width="71" height="20" x="432" y="336" style="fill:#007;stroke:black;"/>
   <text width="71" height="20" x="437" y="350" style="fill:#fff;" font-family="Arial" font-size="16px"> category</text>
   <rect width="71" height="20" x="432" y="356" style="fill:#aea;stroke:black;"/>
   <text width="71" height="20" x="437" y="370" style="fill:black;" font-family="Arial" font-size="16px">id</text>
   <rect width="71" height="20" x="432" y="376" style="fill:none;stroke:black;"/>
   <text width="71" height="20" x="437" y="390" style="fill:black;" font-family="Arial" font-size="16px">name</text>
   <rect width="88" height="20" x="826" y="356" style="fill:#007;stroke:black;"/>
   <text width="88" height="20" x="831" y="370" style="fill:#fff;" font-family="Arial" font-size="16px"> products</text>
   <rect width="88" height="20" x="826" y="376" style="fill:#aea;stroke:black;"/>
   <text width="88" height="20" x="831" y="390" style="fill:black;" font-family="Arial" font-size="16px">id</text>
   <rect width="88" height="20" x="826" y="396" style="fill:none;stroke:black;"/>
   <text width="88" height="20" x="831" y="410" style="fill:black;" font-family="Arial" font-size="16px">name</text>
   <rect width="88" height="20" x="826" y="416" style="fill:none;stroke:black;"/>
   <text width="88" height="20" x="831" y="430" style="fill:black;" font-family="Arial" font-size="16px">weight</text>
   <rect width="88" height="20" x="826" y="436" style="fill:none;stroke:black;"/>
   <text width="88" height="20" x="831" y="450" style="fill:black;" font-family="Arial" font-size="16px">price</text>
   <rect width="88" height="20" x="826" y="456" style="fill:none;stroke:black;"/>
   <text width="88" height="20" x="831" y="470" style="fill:black;" font-family="Arial" font-size="16px">IdCategory</text>
   <rect width="78" height="20" x="602" y="106" style="fill:#007;stroke:black;"/>
   <text width="78" height="20" x="607" y="120" style="fill:#fff;" font-family="Arial" font-size="16px"> users</text>
   <rect width="78" height="20" x="602" y="126" style="fill:#aea;stroke:black;"/>
   <text width="78" height="20" x="607" y="140" style="fill:black;" font-family="Arial" font-size="16px">id</text>
   <rect width="78" height="20" x="602" y="146" style="fill:none;stroke:black;"/>
   <text width="78" height="20" x="607" y="160" style="fill:black;" font-family="Arial" font-size="16px">name</text>
   <rect width="78" height="20" x="602" y="166" style="fill:none;stroke:black;"/>
   <text width="78" height="20" x="607" y="180" style="fill:black;" font-family="Arial" font-size="16px">email</text>
   <rect width="78" height="20" x="602" y="186" style="fill:none;stroke:black;"/>
   <text width="78" height="20" x="607" y="200" style="fill:black;" font-family="Arial" font-size="16px">address</text>
   <rect width="78" height="20" x="602" y="206" style="fill:none;stroke:black;"/>
   <text width="78" height="20" x="607" y="220" style="fill:black;" font-family="Arial" font-size="16px">hashpass</text>
</svg>
